<svg version="1.1" id="Layer_1" xmlns="http://www.w3.org/2000/svg" xmlns:xlink="http://www.w3.org/1999/xlink" x="0px" y="0px"
	 width="100%" viewBox="0 0 512 512" enable-background="new 0 0 512 512" xml:space="preserve">
<path fill="#2C525B" opacity="1.000000" stroke="none" 
	d="
M289.000000,513.000000 
	C267.979095,513.000000 246.958206,513.000000 225.443787,512.598633 
	C218.712158,511.015289 212.449158,509.950500 206.240311,508.630981 
	C179.712631,502.993256 154.513000,493.883698 130.836777,480.477600 
	C100.992928,463.579163 75.674690,441.395294 54.460415,414.693451 
	C40.760399,397.449554 29.486277,378.521606 21.032696,358.047607 
	C12.225139,336.716278 5.574452,314.808441 2.900324,291.795105 
	C2.785067,290.803192 1.656521,289.929016 1.000000,289.000000 
	C1.000000,267.979095 1.000000,246.958206 1.405202,225.439301 
	C2.518840,221.647690 3.395072,218.380051 3.908757,215.056351 
	C7.520926,191.684753 14.606726,169.361496 24.620548,148.006790 
	C40.175549,114.835411 62.098637,86.495361 89.846512,62.530262 
	C104.959648,49.477448 121.243462,38.230141 138.930511,29.094841 
	C165.292465,15.478979 193.146347,6.413068 222.706345,2.874304 
	C223.533829,2.775243 224.238220,1.647872 225.000000,0.999999 
	C246.020889,1.000000 267.041779,1.000000 288.560455,1.405221 
	C292.518524,2.530308 295.956879,3.386406 299.442657,3.948015 
	C322.760712,7.704893 345.090851,14.720869 366.404236,24.792768 
	C387.607635,34.812717 407.590088,46.966167 424.583984,63.240330 
	C437.004089,75.134415 449.035370,87.555389 460.136414,100.675247 
	C473.879272,116.917274 484.192474,135.484009 492.526733,155.081543 
	C500.837097,174.622925 507.153931,194.739731 510.122467,215.847794 
	C510.561798,218.971649 512.015564,221.952820 513.000000,225.000000 
	C513.000000,246.020889 513.000000,267.041779 512.598145,288.556885 
	C511.798096,290.230469 511.251617,291.382233 511.026306,292.593719 
	C509.700745,299.720978 508.727722,306.925171 507.124512,313.987335 
	C501.222168,339.987885 491.500671,364.422638 477.952087,387.485443 
	C461.426544,415.615723 439.953949,439.331268 414.684906,459.549988 
	C395.765503,474.688110 374.726166,486.606384 352.069244,495.429138 
	C334.470154,502.282379 316.443024,507.589386 297.659180,510.158264 
	C294.698578,510.563141 291.882751,512.026184 289.000000,513.000000 
M341.450500,229.555130 
	C343.054169,226.690643 344.657867,223.826157 346.989319,220.902985 
	C347.629486,220.728485 348.277100,220.577271 348.908752,220.375992 
	C358.772217,217.232910 364.986237,210.858154 365.308990,203.040176 
	C365.715240,193.198975 359.623962,187.825027 351.410034,184.461349 
	C348.541138,183.286545 348.347565,181.469177 348.307434,179.049149 
	C348.082703,165.499390 344.979462,152.587677 338.401367,140.775940 
	C319.955322,107.654030 291.355865,92.432907 253.698715,92.983360 
	C205.789749,93.683655 167.441360,130.771881 165.775024,178.649338 
	C165.619888,183.106735 164.552048,185.471390 160.098312,187.522400 
	C147.169586,193.476349 144.514099,207.730194 154.637482,216.237167 
	C158.290222,219.306656 163.360443,220.689362 167.981995,223.562164 
	C168.803940,227.381668 171.318146,229.433563 174.983871,231.176758 
	C174.994919,258.769440 175.005966,286.362122 174.369308,314.307007 
	C170.571274,315.551086 166.836716,317.057526 162.964386,317.994476 
	C144.671387,322.420837 134.163925,333.724396 130.341278,352.281921 
	C125.739182,374.623291 120.138992,396.759064 114.831635,419.381287 
	C115.215645,419.833374 115.599655,420.285461 116.918320,420.836578 
	C161.622772,420.863373 206.327225,420.894501 251.031677,420.895386 
	C252.341751,420.895416 253.651810,420.576691 256.128906,420.488190 
	C256.514954,420.433044 256.901001,420.377899 257.258850,420.297241 
	C257.258850,420.297241 257.317535,420.376862 258.173615,420.675171 
	C258.503174,420.722229 258.832672,420.810272 259.162262,420.810547 
	C304.277313,420.848999 349.392365,420.858459 394.507324,420.948486 
	C399.001038,420.957458 399.337158,418.757416 398.474182,415.169403 
	C393.025177,392.515045 387.724487,369.824860 382.236694,347.179993 
	C378.910950,333.456726 370.332764,324.417297 356.988647,319.894409 
	C351.003632,317.865906 344.992523,315.914459 339.024048,313.001526 
	C338.969147,287.448578 338.914246,261.895660 339.052521,235.606506 
	C339.669189,233.731598 340.285858,231.856674 341.450500,229.555130 
z"/>
<path fill="#000000" opacity="1.000000" stroke="none" 
	d="
M289.468658,513.000000 
	C291.882751,512.026184 294.698578,510.563141 297.659180,510.158264 
	C316.443024,507.589386 334.470154,502.282379 352.069244,495.429138 
	C374.726166,486.606384 395.765503,474.688110 414.684906,459.549988 
	C439.953949,439.331268 461.426544,415.615723 477.952087,387.485443 
	C491.500671,364.422638 501.222168,339.987885 507.124512,313.987335 
	C508.727722,306.925171 509.700745,299.720978 511.026306,292.593719 
	C511.251617,291.382233 511.798096,290.230469 512.598145,289.025574 
	C513.000000,363.593719 513.000000,438.187408 513.000000,513.000000 
	C438.645905,513.000000 364.291626,513.000000 289.468658,513.000000 
z"/>
<path fill="#000000" opacity="1.000000" stroke="none" 
	d="
M1.000000,289.468658 
	C1.656521,289.929016 2.785067,290.803192 2.900324,291.795105 
	C5.574452,314.808441 12.225139,336.716278 21.032696,358.047607 
	C29.486277,378.521606 40.760399,397.449554 54.460415,414.693451 
	C75.674690,441.395294 100.992928,463.579163 130.836777,480.477600 
	C154.513000,493.883698 179.712631,502.993256 206.240311,508.630981 
	C212.449158,509.950500 218.712158,511.015289 224.975128,512.598633 
	C150.406296,513.000000 75.812599,513.000000 1.000000,513.000000 
	C1.000000,438.645905 1.000000,364.291626 1.000000,289.468658 
z"/>
<path fill="#000000" opacity="1.000000" stroke="none" 
	d="
M224.531342,0.999999 
	C224.238220,1.647872 223.533829,2.775243 222.706345,2.874304 
	C193.146347,6.413068 165.292465,15.478979 138.930511,29.094841 
	C121.243462,38.230141 104.959648,49.477448 89.846512,62.530262 
	C62.098637,86.495361 40.175549,114.835411 24.620548,148.006790 
	C14.606726,169.361496 7.520926,191.684753 3.908757,215.056351 
	C3.395072,218.380051 2.518840,221.647690 1.405202,224.970642 
	C1.000000,150.406296 1.000000,75.812576 1.000000,1.000000 
	C75.354088,1.000000 149.708389,1.000000 224.531342,0.999999 
z"/>
<path fill="#000000" opacity="1.000000" stroke="none" 
	d="
M513.000000,224.531342 
	C512.015564,221.952820 510.561798,218.971649 510.122467,215.847794 
	C507.153931,194.739731 500.837097,174.622925 492.526733,155.081543 
	C484.192474,135.484009 473.879272,116.917274 460.136414,100.675247 
	C449.035370,87.555389 437.004089,75.134415 424.583984,63.240330 
	C407.590088,46.966167 387.607635,34.812717 366.404236,24.792768 
	C345.090851,14.720869 322.760712,7.704893 299.442657,3.948015 
	C295.956879,3.386406 292.518524,2.530308 289.029114,1.405221 
	C363.593719,1.000000 438.187408,1.000000 513.000000,1.000000 
	C513.000000,75.354088 513.000000,149.708389 513.000000,224.531342 
z"/>
<path fill="#B56E3D" opacity="1.000000" stroke="none" 
	d="
M175.016998,313.954803 
	C175.005966,286.362122 174.994919,258.769440 175.424911,230.667221 
	C184.184586,230.040131 184.192001,230.040131 184.195114,221.841003 
	C184.200195,208.442047 184.092972,195.041855 184.253525,181.644836 
	C184.303558,177.470413 182.778030,175.394012 178.543121,175.063141 
	C181.269623,148.686630 194.004684,129.117493 216.329498,115.735466 
	C230.237976,107.398392 245.491104,105.120728 261.428070,105.753632 
	C290.209106,106.896622 311.815277,120.026825 326.262878,144.760864 
	C331.752319,154.158646 335.265259,164.359665 334.675354,175.499817 
	C330.431488,175.648010 329.767090,178.086960 329.780701,181.299942 
	C329.841217,195.601410 329.761627,209.903610 329.860474,224.204651 
	C329.873840,226.134415 330.612061,228.059189 330.732574,230.179901 
	C325.586212,239.421158 319.128296,246.849258 309.623230,250.660309 
	C315.688782,237.617081 318.697052,224.257828 319.614044,210.314407 
	C319.903625,205.911560 318.989716,203.803421 314.261230,202.842575 
	C302.913239,200.536621 292.076813,196.345657 282.860718,189.319702 
	C274.355438,182.835632 266.692688,175.246368 258.496979,168.000778 
	C258.413910,168.121811 257.678040,168.984268 257.170898,169.964981 
	C251.168259,181.572723 242.008377,190.120071 229.864670,194.326263 
	C219.918976,197.771118 209.309311,199.378387 198.917114,201.406494 
	C195.789474,202.016891 194.155807,202.744766 194.280869,206.256638 
	C195.241119,233.221039 202.864624,257.329712 223.661575,275.919159 
	C224.627182,276.782288 225.335251,277.933533 226.093811,279.414825 
	C225.966751,284.228729 225.909149,288.578430 225.540222,293.046692 
	C220.697983,296.446869 216.167038,299.728516 211.227966,303.065918 
	C198.885544,306.732758 186.951279,310.343781 175.016998,313.954803 
z"/>
<path fill="#2E89AC" opacity="1.000000" stroke="none" 
	d="
M338.993256,313.928040 
	C344.992523,315.914459 351.003632,317.865906 356.988647,319.894409 
	C370.332764,324.417297 378.910950,333.456726 382.236694,347.179993 
	C387.724487,369.824860 393.025177,392.515045 398.474182,415.169403 
	C399.337158,418.757416 399.001038,420.957458 394.507324,420.948486 
	C349.392365,420.858459 304.277313,420.848999 259.162262,420.810547 
	C258.832672,420.810272 258.503174,420.722229 257.785706,420.351318 
	C257.397797,420.027435 257.666351,419.791840 257.981201,419.651367 
	C261.890869,416.369934 265.485687,413.229004 269.331787,409.965637 
	C270.047760,409.534027 270.512512,409.224823 271.246582,408.742279 
	C273.051361,407.062866 274.586823,405.556793 276.343719,404.021118 
	C276.565155,403.991516 277.005646,403.916595 277.269470,403.739502 
	C279.057770,402.056061 280.582184,400.549683 282.331909,399.011200 
	C282.557251,398.979095 283.005707,398.901123 283.268738,398.725922 
	C285.043121,397.057922 286.554474,395.565125 288.318787,393.952484 
	C289.040527,393.528137 289.509338,393.223633 290.247131,392.745056 
	C292.051514,391.064240 293.586884,389.557465 295.343689,388.021118 
	C295.565155,387.991516 296.005646,387.916595 296.269501,387.739532 
	C298.057770,386.056091 299.582184,384.549713 301.331085,383.011230 
	C301.555542,382.979156 302.002289,382.901276 302.265930,382.724060 
	C306.490417,378.638702 306.329254,377.596497 301.038391,372.976776 
	C301.030640,372.999756 301.060303,372.953247 300.944946,372.646118 
	C299.571869,370.848206 298.314087,369.357452 297.175568,367.537903 
	C298.779572,366.383942 300.175354,365.191864 301.766663,364.805817 
	C305.729004,363.844604 309.877747,363.560272 313.744415,362.344879 
	C315.144409,361.904816 315.954742,359.588989 317.433685,358.098511 
	C321.342957,358.629456 324.852692,359.190979 328.986572,359.852386 
	C319.893616,340.437958 311.128784,321.724060 302.776337,303.055542 
	C315.123596,306.709930 327.058411,310.318970 338.993256,313.928040 
z"/>
<path fill="#2E89AC" opacity="1.000000" stroke="none" 
	d="
M174.693146,314.130920 
	C186.951279,310.343781 198.885544,306.732758 211.097931,303.429901 
	C202.659058,322.274139 193.942078,340.810181 184.977844,359.871979 
	C189.462845,359.227020 193.208679,358.688324 196.916428,358.456604 
	C197.907104,359.982422 198.707275,361.713104 200.018799,362.298889 
	C201.931870,363.153320 204.209534,363.202393 206.336975,363.564178 
	C217.818802,365.516876 218.953766,364.892670 210.579788,374.765259 
	C207.877914,377.950684 208.380569,380.109558 211.458939,382.620575 
	C220.461304,389.963898 229.399811,397.391449 238.191620,404.984833 
	C243.936264,409.946442 249.382172,415.253967 254.961884,420.406555 
	C253.651810,420.576691 252.341751,420.895416 251.031677,420.895386 
	C206.327225,420.894501 161.622772,420.863373 116.339920,420.559570 
	C115.497986,419.849640 115.234444,419.416718 114.970901,418.983826 
	C120.138992,396.759064 125.739182,374.623291 130.341278,352.281921 
	C134.163925,333.724396 144.671387,322.420837 162.964386,317.994476 
	C166.836716,317.057526 170.571274,315.551086 174.693146,314.130920 
z"/>
<path fill="#D8DCDD" opacity="1.000000" stroke="none" 
	d="
M335.105957,175.497955 
	C335.265259,164.359665 331.752319,154.158646 326.262878,144.760864 
	C311.815277,120.026825 290.209106,106.896622 261.428070,105.753632 
	C245.491104,105.120728 230.237976,107.398392 216.329498,115.735466 
	C194.004684,129.117493 181.269623,148.686630 178.150223,175.091431 
	C169.920578,176.201385 167.990219,178.254883 167.947235,186.078796 
	C167.879898,198.333069 167.837036,210.587479 167.783813,222.841827 
	C163.360443,220.689362 158.290222,219.306656 154.637482,216.237167 
	C144.514099,207.730194 147.169586,193.476349 160.098312,187.522400 
	C164.552048,185.471390 165.619888,183.106735 165.775024,178.649338 
	C167.441360,130.771881 205.789749,93.683655 253.698715,92.983360 
	C291.355865,92.432907 319.955322,107.654030 338.401367,140.775940 
	C344.979462,152.587677 348.082703,165.499390 348.307434,179.049149 
	C348.347565,181.469177 348.541138,183.286545 351.410034,184.461349 
	C359.623962,187.825027 365.715240,193.198975 365.308990,203.040176 
	C364.986237,210.858154 358.772217,217.232910 348.908752,220.375992 
	C348.277100,220.577271 347.629486,220.728485 346.594055,220.467163 
	C346.151978,208.798035 346.111206,197.564697 346.056366,186.331451 
	C346.014893,177.836487 343.857971,175.710968 335.105957,175.497955 
z"/>
<path fill="#B56D3D" opacity="1.000000" stroke="none" 
	d="
M339.008667,313.464783 
	C327.058411,310.318970 315.123596,306.709930 302.548859,302.851685 
	C297.314667,299.384399 292.720398,296.166321 288.101318,292.487030 
	C287.984131,287.666901 287.891724,283.307983 287.927734,278.631439 
	C291.722382,274.482422 295.388641,270.651001 299.356812,266.641968 
	C316.263062,261.027557 330.252899,252.188126 338.859344,236.342728 
	C338.914246,261.895660 338.969147,287.448578 339.008667,313.464783 
z"/>
<path fill="#389FC8" opacity="1.000000" stroke="none" 
	d="
M255.545395,420.447388 
	C249.382172,415.253967 243.936264,409.946442 238.191620,404.984833 
	C229.399811,397.391449 220.461304,389.963898 211.458939,382.620575 
	C208.380569,380.109558 207.877914,377.950684 210.579788,374.765259 
	C218.953766,364.892670 217.818802,365.516876 206.336975,363.564178 
	C204.209534,363.202393 201.931870,363.153320 200.018799,362.298889 
	C198.707275,361.713104 197.907104,359.982422 197.307770,358.335388 
	C208.178635,355.911713 218.620041,353.916168 229.333923,352.122131 
	C231.468140,355.856903 233.329865,359.390137 235.204971,363.207886 
	C235.504242,363.973846 235.790115,364.455292 236.040222,364.955078 
	C236.004456,364.973389 236.081726,364.956726 236.086670,365.254059 
	C236.391144,366.045837 236.690674,366.540253 237.004578,367.017578 
	C237.018951,367.000427 236.974792,366.994019 236.979462,367.375427 
	C239.890549,375.547913 242.720001,383.368774 245.722839,391.122498 
	C249.503479,400.884583 253.425827,410.591827 257.287048,420.322723 
	C256.901001,420.377899 256.514954,420.433044 255.545395,420.447388 
z"/>
<path fill="#42B3E1" opacity="1.000000" stroke="none" 
	d="
M334.675354,175.499817 
	C343.857971,175.710968 346.014893,177.836487 346.056366,186.331451 
	C346.111206,197.564697 346.151978,208.798035 346.230164,220.496506 
	C344.657867,223.826157 343.054169,226.690643 340.729858,229.771500 
	C337.010986,229.987335 334.012817,229.986801 331.014618,229.986267 
	C330.612061,228.059189 329.873840,226.134415 329.860474,224.204651 
	C329.761627,209.903610 329.841217,195.601410 329.780701,181.299942 
	C329.767090,178.086960 330.431488,175.648010 334.675354,175.499817 
z"/>
<path fill="#41B3E2" opacity="1.000000" stroke="none" 
	d="
M167.882904,223.201996 
	C167.837036,210.587479 167.879898,198.333069 167.947235,186.078796 
	C167.990219,178.254883 169.920578,176.201385 178.166443,175.504211 
	C182.778030,175.394012 184.303558,177.470413 184.253525,181.644836 
	C184.092972,195.041855 184.200195,208.442047 184.195114,221.841003 
	C184.192001,230.040131 184.184586,230.040131 175.429169,230.215744 
	C171.318146,229.433563 168.803940,227.381668 167.882904,223.201996 
z"/>
<path fill="#7A8D99" opacity="1.000000" stroke="none" 
	d="
M330.732574,230.179901 
	C334.012817,229.986801 337.010986,229.987335 340.455872,229.984818 
	C340.285858,231.856674 339.669189,233.731598 338.955933,235.974609 
	C330.252899,252.188126 316.263062,261.027557 298.946106,266.682434 
	C288.825836,268.345154 279.418182,269.789856 270.026031,270.769714 
	C269.911469,267.308411 269.781403,264.311859 270.115997,261.263885 
	C284.119781,260.017487 297.459381,258.061340 309.466797,251.021744 
	C319.128296,246.849258 325.586212,239.421158 330.732574,230.179901 
z"/>
<path fill="#BDC2C4" opacity="1.000000" stroke="none" 
	d="
M257.272949,420.309998 
	C253.425827,410.591827 249.503479,400.884583 245.722839,391.122498 
	C242.720001,383.368774 239.890549,375.547913 237.243927,367.587463 
	C238.590240,369.070160 239.761215,370.673492 240.748962,372.382690 
	C245.545456,380.682556 250.292831,389.010773 255.229218,397.521301 
	C257.118378,400.497498 257.778320,398.690552 258.787354,396.821442 
	C260.429749,394.758881 261.886597,392.962006 263.049652,390.991638 
	C267.754730,383.020569 272.369324,374.996063 277.013397,367.372742 
	C276.364685,369.635956 275.761444,371.533203 275.068451,373.397095 
	C270.036957,386.929565 264.987366,400.455292 259.725403,414.253540 
	C258.893677,416.279907 258.279999,418.035858 257.666351,419.791840 
	C257.666351,419.791840 257.397797,420.027435 257.357666,420.202148 
	C257.317535,420.376862 257.258850,420.297241 257.272949,420.309998 
z"/>
<path fill="#2E89AC" opacity="1.000000" stroke="none" 
	d="
M114.901268,419.182556 
	C115.234444,419.416718 115.497986,419.849640 115.872589,420.510071 
	C115.599655,420.285461 115.215645,419.833374 114.901268,419.182556 
z"/>
<path fill="#FBD884" opacity="1.000000" stroke="none" 
	d="
M270.010529,271.234528 
	C279.418182,269.789856 288.825836,268.345154 298.644196,266.860016 
	C295.388641,270.651001 291.722382,274.482422 287.598755,278.742065 
	C285.076141,280.226746 283.007660,281.276947 280.946167,282.340790 
	C271.279968,287.329132 261.060669,290.643219 250.276505,287.857422 
	C242.022598,285.725250 234.185654,281.978973 226.163269,278.950623 
	C225.335251,277.933533 224.627182,276.782288 223.661575,275.919159 
	C202.864624,257.329712 195.241119,233.221039 194.280869,206.256638 
	C194.155807,202.744766 195.789474,202.016891 198.917114,201.406494 
	C209.309311,199.378387 219.918976,197.771118 229.864670,194.326263 
	C242.008377,190.120071 251.168259,181.572723 257.170898,169.964981 
	C257.678040,168.984268 258.413910,168.121811 258.496979,168.000778 
	C266.692688,175.246368 274.355438,182.835632 282.860718,189.319702 
	C292.076813,196.345657 302.913239,200.536621 314.261230,202.842575 
	C318.989716,203.803421 319.903625,205.911560 319.614044,210.314407 
	C318.697052,224.257828 315.688782,237.617081 309.623230,250.660309 
	C297.459381,258.061340 284.119781,260.017487 269.914062,261.002075 
	C268.444885,259.734924 267.732391,258.592590 266.824554,257.635620 
	C262.181488,252.741318 255.066071,251.911896 249.562851,255.561615 
	C244.357819,259.013611 242.252060,266.011505 244.643143,271.910675 
	C247.017380,277.768250 253.253082,281.066193 259.688782,279.851105 
	C264.726868,278.899963 267.704132,275.465546 270.010529,271.234528 
z"/>
<path fill="#FDC77D" opacity="1.000000" stroke="none" 
	d="
M226.093811,279.414825 
	C234.185654,281.978973 242.022598,285.725250 250.276505,287.857422 
	C261.060669,290.643219 271.279968,287.329132 280.946167,282.340790 
	C283.007660,281.276947 285.076141,280.226746 287.470337,279.059631 
	C287.891724,283.307983 287.984131,287.666901 288.045746,292.791931 
	C287.959869,293.967010 287.904755,294.376038 287.669861,295.112061 
	C277.815613,329.295135 268.141174,363.151245 258.466736,397.007355 
	C257.778320,398.690552 257.118378,400.497498 255.236389,397.083984 
	C251.718033,384.277496 248.460388,372.073151 244.989075,359.929932 
	C238.776459,338.197021 232.435165,316.500916 226.116470,294.476654 
	C226.007370,293.751953 225.929459,293.340057 225.851532,292.928131 
	C225.909149,288.578430 225.966751,284.228729 226.093811,279.414825 
z"/>
<path fill="#EDF2F4" opacity="1.000000" stroke="none" 
	d="
M225.540222,293.046692 
	C225.929459,293.340057 226.007370,293.751953 226.080414,294.953613 
	C226.057327,297.903961 225.913834,300.071899 226.040787,302.223938 
	C227.018143,318.791229 228.047928,335.355438 229.061447,351.920654 
	C218.620041,353.916168 208.178635,355.911713 197.345871,358.028442 
	C193.208679,358.688324 189.462845,359.227020 184.977844,359.871979 
	C193.942078,340.810181 202.659058,322.274139 211.506073,303.374146 
	C216.167038,299.728516 220.697983,296.446869 225.540222,293.046692 
z"/>
<path fill="#EDF2F4" opacity="1.000000" stroke="none" 
	d="
M287.849640,294.785065 
	C287.904755,294.376038 287.959869,293.967010 288.070557,293.253113 
	C292.720398,296.166321 297.314667,299.384399 302.136444,302.806335 
	C311.128784,321.724060 319.893616,340.437958 328.986572,359.852386 
	C324.852692,359.190979 321.342957,358.629456 317.052094,357.961487 
	C305.826965,355.879303 295.382965,353.903534 284.958618,351.467041 
	C285.177948,346.193573 285.332520,341.378479 285.585754,336.568634 
	C286.319122,322.639648 287.092163,308.712769 287.849640,294.785065 
z"/>
<path fill="#389FC8" opacity="1.000000" stroke="none" 
	d="
M284.938965,351.927795 
	C295.382965,353.903534 305.826965,355.879303 316.652557,357.992065 
	C315.954742,359.588989 315.144409,361.904816 313.744415,362.344879 
	C309.877747,363.560272 305.729004,363.844604 301.766663,364.805817 
	C300.175354,365.191864 298.779572,366.383942 297.199280,367.916534 
	C298.422607,370.067047 299.741455,371.510162 301.060303,372.953247 
	C301.060303,372.953247 301.030640,372.999756 301.060242,373.393616 
	C301.393982,376.825409 301.698151,379.863342 302.002319,382.901276 
	C302.002289,382.901276 301.555542,382.979156 300.951904,383.039917 
	C298.900757,384.705994 297.453186,386.311279 296.005646,387.916595 
	C296.005646,387.916595 295.565155,387.991516 294.962830,388.048157 
	C292.899689,389.709564 291.438904,391.314331 289.978119,392.919128 
	C289.509338,393.223633 289.040527,393.528137 288.025818,393.845703 
	C283.460693,393.296570 283.421448,396.265869 283.005707,398.901123 
	C283.005707,398.901123 282.557251,398.979095 281.952759,399.039886 
	C279.900726,400.705963 278.453186,402.311279 277.005646,403.916595 
	C277.005646,403.916595 276.565155,403.991516 275.962830,404.048096 
	C273.899445,405.708344 272.438354,407.311981 270.977264,408.915619 
	C270.512512,409.224823 270.047760,409.534027 269.038483,409.855713 
	C267.136414,410.446838 265.754517,410.975159 264.427765,411.617401 
	C262.907501,412.353271 261.436127,413.190155 259.943481,413.983154 
	C264.987366,400.455292 270.036957,386.929565 275.068451,373.397095 
	C275.761444,371.533203 276.364685,369.635956 276.994568,367.376556 
	C276.979675,366.998962 277.004639,367.028381 277.228119,366.833527 
	C277.607300,366.079926 277.762970,365.521149 277.955200,364.966919 
	C277.991699,364.971436 277.925690,364.937592 278.113708,364.729004 
	C278.468658,363.994812 278.635590,363.469238 278.960388,362.619965 
	C281.058472,358.840118 282.998718,355.383942 284.938965,351.927795 
z"/>
<path fill="#389FC8" opacity="1.000000" stroke="none" 
	d="
M259.725433,414.253540 
	C261.436127,413.190155 262.907501,412.353271 264.427765,411.617401 
	C265.754517,410.975159 267.136414,410.446838 268.787231,409.978149 
	C265.485687,413.229004 261.890869,416.369934 257.981201,419.651367 
	C258.279999,418.035858 258.893677,416.279907 259.725433,414.253540 
z"/>
<path fill="#389FC8" opacity="1.000000" stroke="none" 
	d="
M302.265961,382.724060 
	C301.698151,379.863342 301.393982,376.825409 301.067963,373.370636 
	C306.329254,377.596497 306.490417,378.638702 302.265961,382.724060 
z"/>
<path fill="#389FC8" opacity="1.000000" stroke="none" 
	d="
M283.268738,398.725922 
	C283.421448,396.265869 283.460693,393.296570 287.772888,393.965576 
	C286.554474,395.565125 285.043121,397.057922 283.268738,398.725922 
z"/>
<path fill="#389FC8" opacity="1.000000" stroke="none" 
	d="
M296.269501,387.739532 
	C297.453186,386.311279 298.900757,384.705994 300.727478,383.072021 
	C299.582184,384.549713 298.057770,386.056091 296.269501,387.739532 
z"/>
<path fill="#389FC8" opacity="1.000000" stroke="none" 
	d="
M290.247131,392.745056 
	C291.438904,391.314331 292.899689,389.709564 294.741364,388.077728 
	C293.586884,389.557465 292.051514,391.064240 290.247131,392.745056 
z"/>
<path fill="#389FC8" opacity="1.000000" stroke="none" 
	d="
M277.269470,403.739502 
	C278.453186,402.311279 279.900726,400.705963 281.727448,399.071991 
	C280.582184,400.549683 279.057770,402.056061 277.269470,403.739502 
z"/>
<path fill="#389FC8" opacity="1.000000" stroke="none" 
	d="
M271.246582,408.742279 
	C272.438354,407.311981 273.899445,405.708344 275.741394,404.077698 
	C274.586823,405.556793 273.051361,407.062866 271.246582,408.742279 
z"/>
<path fill="#389FC8" opacity="1.000000" stroke="none" 
	d="
M300.944946,372.646118 
	C299.741455,371.510162 298.422607,370.067047 297.080048,368.245300 
	C298.314087,369.357452 299.571869,370.848206 300.944946,372.646118 
z"/>
<path fill="#DCDEDD" opacity="1.000000" stroke="none" 
	d="
M229.333923,352.122131 
	C228.047928,335.355438 227.018143,318.791229 226.040787,302.223938 
	C225.913834,300.071899 226.057327,297.903961 226.111603,295.266418 
	C232.435165,316.500916 238.776459,338.197021 244.989075,359.929932 
	C248.460388,372.073151 251.718033,384.277496 255.064789,396.891602 
	C250.292831,389.010773 245.545456,380.682556 240.748962,372.382690 
	C239.761215,370.673492 238.590240,369.070160 237.239258,367.206024 
	C236.974792,366.994019 237.018951,367.000427 236.964493,366.731262 
	C236.633942,365.960297 236.357834,365.458527 236.081726,364.956726 
	C236.081726,364.956726 236.004456,364.973389 236.006592,364.676270 
	C235.736343,363.893921 235.463959,363.408661 235.191589,362.923401 
	C233.329865,359.390137 231.468140,355.856903 229.333923,352.122131 
z"/>
<path fill="#BDC2C4" opacity="1.000000" stroke="none" 
	d="
M236.086670,365.254059 
	C236.357834,365.458527 236.633942,365.960297 236.950119,366.748413 
	C236.690674,366.540253 236.391144,366.045837 236.086670,365.254059 
z"/>
<path fill="#BDC2C4" opacity="1.000000" stroke="none" 
	d="
M235.204971,363.207886 
	C235.463959,363.408661 235.736343,363.893921 236.042358,364.657959 
	C235.790115,364.455292 235.504242,363.973846 235.204971,363.207886 
z"/>
<path fill="#F17A6B" opacity="1.000000" stroke="none" 
	d="
M270.026031,270.769714 
	C267.704132,275.465546 264.726868,278.899963 259.688782,279.851105 
	C253.253082,281.066193 247.017380,277.768250 244.643143,271.910675 
	C242.252060,266.011505 244.357819,259.013611 249.562851,255.561615 
	C255.066071,251.911896 262.181488,252.741318 266.824554,257.635620 
	C267.732391,258.592590 268.444885,259.734924 269.449402,261.053528 
	C269.781403,264.311859 269.911469,267.308411 270.026031,270.769714 
z"/>
<path fill="#DCDEDD" opacity="1.000000" stroke="none" 
	d="
M284.958618,351.467041 
	C282.998718,355.383942 281.058472,358.840118 278.783813,362.836914 
	C278.274841,363.897552 278.100250,364.417572 277.925659,364.937592 
	C277.925690,364.937592 277.991699,364.971436 277.775879,365.192413 
	C277.374939,365.951721 277.189789,366.490051 277.004639,367.028381 
	C277.004639,367.028381 276.979675,366.998962 276.998505,366.995117 
	C272.369324,374.996063 267.754730,383.020569 263.049652,390.991638 
	C261.886597,392.962006 260.429749,394.758881 258.787354,396.821442 
	C268.141174,363.151245 277.815613,329.295135 287.669861,295.112061 
	C287.092163,308.712769 286.319122,322.639648 285.585754,336.568634 
	C285.332520,341.378479 285.177948,346.193573 284.958618,351.467041 
z"/>
<path fill="#BDC2C4" opacity="1.000000" stroke="none" 
	d="
M278.113678,364.729004 
	C278.100250,364.417572 278.274841,363.897552 278.625977,363.160583 
	C278.635590,363.469238 278.468658,363.994812 278.113678,364.729004 
z"/>
<path fill="#BDC2C4" opacity="1.000000" stroke="none" 
	d="
M277.228119,366.833527 
	C277.189789,366.490051 277.374939,365.951721 277.739380,365.187897 
	C277.762970,365.521149 277.607300,366.079926 277.228119,366.833527 
z"/>
</svg>